<svg width="400" height="100" viewBox="0 0 400 100" fill="none" xmlns="http://www.w3.org/2000/svg">
<path d="M98.5 74.82H89.52V42.66C89.52 42.03 89.4 41.45 89.16 40.9C88.92 40.36 88.59 39.88 88.19 39.47C87.78 39.06 87.31 38.74 86.76 38.51C86.21 38.28 85.63 38.16 85 38.16C84.37 38.16 83.79 38.28 83.24 38.51C82.69 38.74 82.22 39.06 81.81 39.47C81.4 39.88 81.08 40.35 80.85 40.9C80.62 41.44 80.5 42.03 80.5 42.66V74.82H71.49V42.66C71.49 42.03 71.37 41.45 71.14 40.9C70.91 40.36 70.59 39.88 70.18 39.47C69.77 39.06 69.3 38.74 68.75 38.51C68.2 38.28 67.62 38.16 66.99 38.16C66.36 38.16 65.78 38.28 65.23 38.51C64.68 38.74 64.21 39.06 63.8 39.47C63.39 39.88 63.07 40.35 62.84 40.9C62.61 41.44 62.49 42.03 62.49 42.66V74.82H53.48V42.66C53.48 40.8 53.83 39.04 54.53 37.4C55.23 35.76 56.19 34.32 57.42 33.1C58.64 31.88 60.08 30.91 61.72 30.21C63.36 29.51 65.12 29.16 66.98 29.16C68.66 29.16 70.27 29.46 71.82 30.06C73.37 30.66 74.76 31.52 76 32.65C77.24 31.52 78.62 30.66 80.16 30.06C81.7 29.46 83.31 29.16 84.98 29.16C86.84 29.16 88.6 29.51 90.24 30.21C91.88 30.91 93.32 31.87 94.54 33.1C95.76 34.32 96.73 35.76 97.43 37.4C98.13 39.04 98.48 40.8 98.48 42.66V74.82H98.5Z" fill="#132E57"/>
<path d="M145.27 74.82H136.26V65.81H118.23V74.82H109.25V47.81C109.25 45.32 109.72 42.98 110.66 40.79C111.6 38.6 112.88 36.69 114.51 35.06C116.13 33.43 118.04 32.14 120.23 31.2C122.42 30.26 124.76 29.79 127.25 29.79C129.74 29.79 132.08 30.26 134.27 31.2C136.46 32.14 138.37 33.43 140 35.06C141.63 36.69 142.92 38.6 143.86 40.79C144.8 42.98 145.27 45.32 145.27 47.81V74.82ZM136.26 56.83V47.82C136.26 46.58 136.02 45.42 135.55 44.32C135.08 43.22 134.44 42.26 133.62 41.45C132.8 40.63 131.85 39.99 130.75 39.52C129.65 39.05 128.48 38.81 127.25 38.81C126.01 38.81 124.85 39.05 123.75 39.52C122.65 39.99 121.69 40.63 120.88 41.45C120.06 42.27 119.42 43.22 118.95 44.32C118.48 45.42 118.24 46.59 118.24 47.82V56.83H136.26Z" fill="#132E57"/>
<path d="M165.32 74.82H156.31V29.78H174.34C175.99 29.78 177.59 29.99 179.11 30.42C180.63 30.85 182.07 31.46 183.4 32.24C184.73 33.03 185.94 33.97 187.04 35.07C188.14 36.17 189.08 37.39 189.87 38.73C190.66 40.07 191.26 41.5 191.69 43.03C192.12 44.56 192.33 46.15 192.33 47.8C192.33 50.27 191.86 52.6 190.92 54.79C189.98 56.98 188.69 58.89 187.06 60.52C185.43 62.15 183.52 63.44 181.33 64.38C179.14 65.32 176.81 65.79 174.34 65.79H165.33V74.82H165.32ZM165.32 38.8V56.83H174.33C175.57 56.83 176.73 56.59 177.82 56.12C178.91 55.65 179.86 55.01 180.68 54.19C181.5 53.37 182.14 52.42 182.61 51.32C183.08 50.22 183.32 49.05 183.32 47.82C183.32 46.59 183.08 45.42 182.61 44.32C182.14 43.22 181.5 42.26 180.68 41.45C179.86 40.63 178.91 39.99 177.82 39.52C176.73 39.05 175.57 38.81 174.33 38.81H165.32V38.8Z" fill="#132E57"/>
<path d="M236.35 74.82H227.34V65.81H209.31V74.82H200.33V47.81C200.33 45.32 200.8 42.98 201.74 40.79C202.68 38.6 203.96 36.69 205.59 35.06C207.21 33.43 209.12 32.14 211.31 31.2C213.5 30.26 215.84 29.79 218.33 29.79C220.82 29.79 223.16 30.26 225.35 31.2C227.54 32.14 229.45 33.43 231.08 35.06C232.71 36.69 234 38.6 234.94 40.79C235.88 42.98 236.35 45.32 236.35 47.81V74.82ZM227.33 56.83V47.82C227.33 46.58 227.09 45.42 226.62 44.32C226.15 43.22 225.51 42.26 224.69 41.45C223.87 40.63 222.92 39.99 221.82 39.52C220.72 39.05 219.55 38.81 218.32 38.81C217.09 38.81 215.92 39.05 214.82 39.52C213.72 39.99 212.76 40.63 211.95 41.45C211.13 42.27 210.49 43.22 210.02 44.32C209.55 45.42 209.31 46.59 209.31 47.82V56.83H227.33Z" fill="#132E57"/>
<path d="M277.61 74.82H268.6V29.78H286.63C288.28 29.78 289.88 29.99 291.4 30.42C292.93 30.85 294.36 31.46 295.69 32.24C297.02 33.03 298.23 33.97 299.33 35.07C300.43 36.17 301.37 37.39 302.16 38.73C302.95 40.07 303.55 41.5 303.98 43.03C304.41 44.56 304.62 46.15 304.62 47.8C304.62 50.27 304.15 52.6 303.21 54.79C302.27 56.98 300.98 58.89 299.35 60.52C297.72 62.15 295.81 63.44 293.62 64.38C291.43 65.32 289.1 65.79 286.63 65.79H277.62V74.82H277.61ZM277.61 38.8V56.83H286.62C287.86 56.83 289.02 56.59 290.11 56.12C291.2 55.65 292.15 55.01 292.97 54.19C293.79 53.37 294.43 52.42 294.9 51.32C295.37 50.22 295.61 49.05 295.61 47.82C295.61 46.59 295.37 45.42 294.9 44.32C294.43 43.22 293.79 42.26 292.97 41.45C292.15 40.63 291.2 39.99 290.11 39.52C289.02 39.05 287.86 38.81 286.62 38.81H277.61V38.8Z" fill="#132E57"/>
<path d="M349.08 70.21C346.99 72.01 344.64 73.39 342.04 74.36C339.44 75.32 336.75 75.8 333.97 75.8C331.83 75.8 329.78 75.52 327.8 74.97C325.82 74.42 323.97 73.63 322.24 72.61C320.51 71.59 318.94 70.37 317.51 68.95C316.09 67.53 314.87 65.95 313.85 64.22C312.83 62.49 312.05 60.64 311.49 58.66C310.94 56.68 310.66 54.62 310.66 52.49C310.66 50.35 310.94 48.29 311.49 46.3C312.04 44.31 312.83 42.45 313.85 40.73C314.87 39.01 316.09 37.43 317.51 36C318.93 34.57 320.51 33.36 322.24 32.34C323.97 31.32 325.82 30.54 327.8 29.98C329.78 29.43 331.84 29.15 333.97 29.15C336.75 29.15 339.45 29.63 342.04 30.58C344.64 31.53 346.98 32.92 349.08 34.74L344.31 42.59C342.99 41.17 341.43 40.07 339.63 39.31C337.83 38.55 335.94 38.16 333.98 38.16C331.99 38.16 330.13 38.54 328.39 39.29C326.65 40.04 325.13 41.06 323.84 42.35C322.54 43.64 321.52 45.16 320.76 46.9C320.01 48.65 319.63 50.51 319.63 52.47C319.63 54.44 320.01 56.29 320.76 58.01C321.51 59.74 322.54 61.25 323.84 62.55C325.14 63.85 326.66 64.87 328.39 65.63C330.13 66.38 331.99 66.76 333.98 66.76C335.95 66.76 337.83 66.38 339.63 65.61C341.43 64.85 342.99 63.75 344.31 62.33L349.08 70.21Z" fill="#132E57"/>
<path d="M393.59 52.3C393.59 54.37 393.32 56.37 392.79 58.28C392.26 60.2 391.5 61.99 390.51 63.65C389.53 65.31 388.35 66.83 386.99 68.2C385.63 69.57 384.11 70.75 382.44 71.73C380.77 72.71 378.97 73.47 377.05 74.01C375.13 74.54 373.14 74.81 371.07 74.81H357.5V29.78H371.07C373.14 29.78 375.14 30.05 377.05 30.58C378.97 31.11 380.76 31.87 382.44 32.86C384.12 33.84 385.63 35.02 386.99 36.39C388.35 37.76 389.52 39.28 390.51 40.94C391.49 42.6 392.25 44.39 392.79 46.31C393.33 48.24 393.59 50.23 393.59 52.3ZM384.58 52.3C384.58 50.44 384.23 48.69 383.53 47.05C382.83 45.42 381.87 43.99 380.64 42.76C379.42 41.54 377.98 40.57 376.34 39.85C374.7 39.14 372.94 38.78 371.08 38.78H366.59V65.79H371.08C372.94 65.79 374.7 65.44 376.34 64.74C377.98 64.04 379.42 63.08 380.64 61.85C381.86 60.63 382.83 59.19 383.53 57.55C384.23 55.92 384.58 54.17 384.58 52.3Z" fill="#132E57"/>
<path d="M24.4798 73.28C23.2798 71.85 22.0898 70.46 20.9398 69.05C17.2298 64.49 13.7098 59.8 10.7198 54.73C9.40984 52.51 8.25984 50.22 7.34984 47.81C5.94984 44.1 6.17984 40.42 7.61984 36.83C10.2398 30.3 15.0998 26.43 22.0498 25.34C31.1698 23.91 40.0998 30.2 42.1598 39.27C43.0298 43.13 42.3198 46.69 40.6898 50.19C38.6298 54.58 36.0398 58.64 33.1298 62.49C30.4498 66.03 27.6098 69.45 24.8298 72.92C24.7298 73.01 24.6298 73.12 24.4798 73.28ZM24.4598 58.03C32.8498 58.03 39.6198 51.25 39.6198 42.86C39.6198 34.6 32.8098 27.8 24.5298 27.79C16.1598 27.78 9.36984 34.58 9.37984 42.97C9.37984 51.24 16.1798 58.03 24.4598 58.03Z" fill="#4F81CD"/>
<path d="M24.2399 76.47C21.5199 76.45 18.5699 76.17 15.7999 74.95C15.0599 74.63 14.3599 74.16 13.7499 73.64C13.0499 73.05 13.0399 72.31 13.7499 71.72C14.4099 71.17 15.1699 70.7 15.9599 70.34C16.7699 69.97 17.6499 69.76 18.5099 69.54C18.6999 69.49 19.0299 69.62 19.1599 69.78C20.6599 71.51 22.1199 73.26 23.6099 75C24.2499 75.75 24.7499 75.74 25.3899 74.98C26.8599 73.25 28.3199 71.52 29.7999 69.8C29.9399 69.63 30.2699 69.46 30.4399 69.52C31.6799 69.93 32.9099 70.37 34.1199 70.87C34.4999 71.02 34.8299 71.32 35.1299 71.6C35.9199 72.34 35.9699 73.08 35.1299 73.73C34.3599 74.33 33.48 74.83 32.58 75.19C30.01 76.21 27.2799 76.46 24.2399 76.47Z" fill="#263853"/>
<path d="M24.4599 58.03C16.1799 58.03 9.37989 51.25 9.37989 42.97C9.36989 34.58 16.1599 27.78 24.5299 27.79C32.7999 27.8 39.6199 34.6 39.6199 42.86C39.6199 51.25 32.8499 58.02 24.4599 58.03ZM24.5099 56.21C31.8599 56.21 37.7999 50.28 37.7899 42.95C37.7799 35.53 31.8699 29.63 24.4499 29.63C17.1199 29.63 11.1899 35.57 11.1999 42.92C11.2099 50.3 17.1299 56.21 24.5099 56.21Z" fill="white"/>
<path d="M24.5102 56.21C17.1202 56.21 11.2102 50.3 11.2002 42.92C11.1902 35.57 17.1202 29.63 24.4502 29.63C31.8702 29.63 37.7802 35.53 37.7902 42.95C37.8002 50.28 31.8602 56.2 24.5102 56.21Z" fill="#4F81CD"/>
</svg>
